HIERARCHY
ROOT joint_Root
{
	OFFSET 0.0 0.0 0.0
	CHANNELS 6 Xposition Yposition Zposition Zrotation Xrotation Yrotation 
	JOINT Hips
	{
		OFFSET -17.1583 93.1646 452.98
		CHANNELS 6 Xposition Yposition Zposition Zrotation Xrotation Yrotation 
		JOINT Spine
		{
			OFFSET 15.7357 0.0 0.0
			CHANNELS 6 Xposition Yposition Zposition Zrotation Xrotation Yrotation 
			JOINT Chest
			{
				OFFSET 8.98455 -0.406207 0.0
				CHANNELS 6 Xposition Yposition Zposition Zrotation Xrotation Yrotation 
				JOINT Neck
				{
					OFFSET 16.3773 0.0 0.0
					CHANNELS 6 Xposition Yposition Zposition Zrotation Xrotation Yrotation 
					JOINT Head
					{
						OFFSET 6.45672 0.0 0.0
						CHANNELS 6 Xposition Yposition Zposition Zrotation Xrotation Yrotation 
						End Site
						{
							OFFSET 0.0 0.0 0.0
						}
					}
				}
				JOINT Shoulder_L
				{
					OFFSET 12.9942 -0.242716 4.98039
					CHANNELS 6 Xposition Yposition Zposition Zrotation Xrotation Yrotation 
					JOINT UpperArm_L
					{
						OFFSET 5.34809 0.0 0.0
						CHANNELS 6 Xposition Yposition Zposition Zrotation Xrotation Yrotation 
						JOINT LowerArm_L
						{
							OFFSET 24.3286 1.87007e-05 0.0
							CHANNELS 6 Xposition Yposition Zposition Zrotation Xrotation Yrotation 
							JOINT Hand_L
							{
								OFFSET 22.2916 0.0 0.0
								CHANNELS 6 Xposition Yposition Zposition Zrotation Xrotation Yrotation 
								End Site
								{
									OFFSET 0.0 0.0 0.0
								}
							}
						}
					}
				}
				JOINT Shoulder_R
				{
					OFFSET 12.9945 -0.242716 -4.98039
					CHANNELS 6 Xposition Yposition Zposition Zrotation Xrotation Yrotation 
					JOINT UpperArm_R
					{
						OFFSET -5.34813 0.0 0.0
						CHANNELS 6 Xposition Yposition Zposition Zrotation Xrotation Yrotation 
						JOINT LowerArm_R
						{
							OFFSET -24.3289 0.000322201 0.0
							CHANNELS 6 Xposition Yposition Zposition Zrotation Xrotation Yrotation 
							JOINT Hand_R
							{
								OFFSET -22.2915 -0.000108084 0.0
								CHANNELS 6 Xposition Yposition Zposition Zrotation Xrotation Yrotation 
								End Site
								{
									OFFSET 0.0 0.0 0.0
								}
							}
						}
					}
				}
			}
		}
		JOINT UpperLeg_L
		{
			OFFSET -2.19248 -6.46944 0.0
			CHANNELS 6 Xposition Yposition Zposition Zrotation Xrotation Yrotation 
			JOINT LowerLeg_L
			{
				OFFSET 39.0811 0.0 -1.23785e-05
				CHANNELS 6 Xposition Yposition Zposition Zrotation Xrotation Yrotation 
				JOINT Foot_L
				{
					OFFSET 40.9854 0.0 -1.26872e-05
					CHANNELS 6 Xposition Yposition Zposition Zrotation Xrotation Yrotation 
					JOINT Toes_L
					{
						OFFSET 11.7543 0.0 0.0
						CHANNELS 6 Xposition Yposition Zposition Zrotation Xrotation Yrotation 
						End Site
						{
							OFFSET 0.0 0.0 0.0
						}
					}
				}
			}
		}
		JOINT UpperLeg_R
		{
			OFFSET -2.19251 6.46944 0.0
			CHANNELS 6 Xposition Yposition Zposition Zrotation Xrotation Yrotation 
			JOINT LowerLeg_R
			{
				OFFSET -39.0811 -0.00228153 -0.0401928
				CHANNELS 6 Xposition Yposition Zposition Zrotation Xrotation Yrotation 
				JOINT Foot_R
				{
					OFFSET -40.9854 0.0 0.0
					CHANNELS 6 Xposition Yposition Zposition Zrotation Xrotation Yrotation 
					JOINT Toes_R
					{
						OFFSET -11.7543 0.0 0.0
						CHANNELS 6 Xposition Yposition Zposition Zrotation Xrotation Yrotation 
						End Site
						{
							OFFSET 0.0 0.0 0.0
						}
					}
				}
			}
		}
	}
}
MOTION
Frames:	7
Frame Time:	0.0333333
0.000000 0.000000 0.000000 0.000000 0.000000 -0.000000 4.108620 93.024400 466.829000 -90.662700 5.183850 175.085000 15.735700 0.000005 -0.000001 137.392000 85.735000 -137.951000 8.984550 -0.406207 -0.000000 -1.964340 6.323930 -1.009290 16.377300 -0.000001 -0.000001 -0.578399 2.447120 -1.784050 6.456720 -0.000001 -0.000000 -9.301190 -0.246986 -0.747126 12.994200 -0.242716 4.980390 -92.738700 6.733420 -67.805100 5.348090 -0.000007 -0.000001 -38.755500 -14.343800 19.050200 24.328600 0.000019 0.000005 2.047690 22.237300 -5.399870 22.291600 -0.000001 0.000005 26.122900 4.460760 17.204800 12.994500 -0.242716 -4.980390 89.489000 1.544740 -71.694200 -5.348130 -0.000001 -0.000004 -65.542400 23.924200 -32.035500 -24.328900 0.000322 -0.000009 -9.739280 -8.677450 -48.680900 -22.291500 -0.000108 -0.000004 11.082600 5.559700 -9.160090 -2.192480 -6.469440 -0.000000 -178.590000 -9.399330 -26.152100 39.081100 -0.000007 -0.000012 0.027184 -0.094338 16.074800 40.985400 -0.000006 -0.000013 -7.897400 9.745740 -54.940700 11.754300 -0.000000 0.000003 0.002390 0.067209 -13.850900 -2.192510 6.469440 -0.000001 176.506000 12.492100 -173.446000 -39.081100 -0.002282 -0.040193 -0.006145 0.043006 12.431400 -40.985400 0.000008 0.000006 -7.887050 15.297700 -59.345100 -11.754300 -0.000006 -0.000006 -0.002857 -0.038973 -18.158000
0.000000 0.000000 0.000000 0.000000 0.000000 -0.000000 3.806040 92.006300 463.230000 -89.925900 6.030940 175.044000 15.735700 0.000005 -0.000001 136.112000 85.794200 -136.330000 8.984550 -0.406207 -0.000000 -1.926590 6.079170 -0.334409 16.377300 -0.000001 -0.000001 -0.296776 2.982840 -1.934020 6.456720 -0.000001 -0.000000 -9.447900 0.724229 -0.906553 12.994200 -0.242716 4.980390 -93.036800 7.537670 -67.980100 5.348090 -0.000007 -0.000001 -37.482900 -14.985100 20.007100 24.328600 0.000019 0.000005 1.691180 23.104400 -4.302700 22.291600 -0.000001 0.000005 26.667000 4.105750 22.705800 12.994500 -0.242716 -4.980390 89.291900 2.142500 -71.705500 -5.348130 -0.000001 -0.000004 -66.388300 24.038600 -30.249900 -24.328900 0.000322 -0.000009 -10.064600 -9.180860 -48.043400 -22.291500 -0.000108 -0.000004 11.561700 5.574750 -9.937270 -2.192480 -6.469440 -0.000000 -179.006000 -11.084000 -25.062100 39.081100 -0.000007 -0.000012 0.014074 -0.107126 7.484780 40.985400 -0.000006 -0.000013 -8.275140 8.673310 -55.248700 11.754300 -0.000000 0.000003 0.002457 0.074569 -13.552500 -2.192510 6.469440 -0.000001 176.126000 11.670000 -172.680000 -39.081100 -0.002282 -0.040193 -0.018790 0.080957 15.281500 -40.985400 0.000008 0.000006 -8.232630 15.933700 -60.045300 -11.754300 -0.000006 -0.000006 -0.011477 -0.114359 -21.234400
0.000000 0.000000 0.000000 0.000000 0.000000 -0.000000 3.265730 91.029700 459.040000 -89.828700 6.152490 174.900000 15.735700 0.000005 -0.000001 132.896000 86.131300 -132.974000 8.984550 -0.406207 -0.000000 -2.097350 5.271820 -0.059207 16.377300 -0.000001 -0.000001 -0.024498 3.289160 -2.000800 6.456720 -0.000001 -0.000000 -9.857430 1.573960 -0.832211 12.994200 -0.242716 4.980390 -93.326300 8.244270 -67.936700 5.348090 -0.000007 -0.000001 -38.120800 -15.451500 20.409300 24.328600 0.000019 0.000005 1.440100 20.124600 -4.178530 22.291600 -0.000001 0.000005 26.166700 4.042400 23.618400 12.994500 -0.242716 -4.980390 89.056000 2.836940 -71.587300 -5.348130 -0.000001 -0.000004 -67.468700 24.372500 -26.375400 -24.328900 0.000322 -0.000009 -9.248500 -9.050630 -45.983300 -22.291500 -0.000108 -0.000004 9.338880 5.564010 -9.373640 -2.192480 -6.469440 -0.000000 -179.760000 -10.716400 -26.192600 39.081100 -0.000007 -0.000012 0.011453 -0.084591 7.710770 40.985400 -0.000006 -0.000013 -8.129210 9.132670 -56.745000 11.754300 -0.000000 0.000003 0.002465 0.075835 -13.501200 -2.192510 6.469440 -0.000001 174.959000 11.219700 -171.863000 -39.081100 -0.002282 -0.040193 -0.025854 0.088978 18.156000 -40.985400 0.000008 0.000006 -8.857550 16.580100 -59.439400 -11.754300 -0.000006 -0.000006 -0.032711 -0.229632 -25.987400
0.000000 0.000000 0.000000 0.000000 0.000000 -0.000000 2.564830 90.183600 454.134000 -90.189200 6.144060 174.634000 15.735700 0.000005 -0.000001 132.276000 86.549300 -132.379000 8.984550 -0.406207 -0.000000 -2.659070 4.650350 -0.099528 16.377300 -0.000001 -0.000001 0.106793 3.329350 -1.886900 6.456720 -0.000001 -0.000000 -9.960660 1.896490 -0.505710 12.994200 -0.242716 4.980390 -93.580800 8.853910 -67.874500 5.348090 -0.000007 -0.000001 -40.613500 -15.773400 19.514000 24.328600 0.000019 0.000005 1.231320 18.399200 -3.895320 22.291600 -0.000001 0.000005 24.597700 4.261870 20.352100 12.994500 -0.242716 -4.980390 88.779000 3.621610 -71.355500 -5.348130 -0.000001 -0.000004 -68.186500 24.654900 -20.520000 -24.328900 0.000322 -0.000009 -7.432000 -8.393130 -41.775100 -22.291500 -0.000108 -0.000004 6.231450 5.544320 -8.421680 -2.192480 -6.469440 -0.000000 177.400000 -11.188200 -32.312900 39.081100 -0.000007 -0.000012 0.052066 -0.134005 21.233000 40.985400 -0.000006 -0.000013 0.225679 11.870100 -60.139300 11.754300 -0.000000 0.000003 0.002432 0.071303 -13.684900 -2.192510 6.469440 -0.000001 173.526000 9.944940 -171.193000 -39.081100 -0.002282 -0.040193 -0.018557 0.056983 21.002000 -40.985400 0.000008 0.000006 -10.034000 15.959400 -56.769800 -11.754300 -0.000006 -0.000006 -0.076965 -0.383367 -32.476400
0.000000 0.000000 0.000000 0.000000 0.000000 -0.000000 1.730750 89.582100 448.728000 -91.344800 5.947790 173.908000 15.735700 0.000005 -0.000001 134.554000 87.239100 -134.972000 8.984550 -0.406207 -0.000000 -3.821220 3.913890 -0.706098 16.377300 -0.000001 -0.000001 0.536048 3.201230 -1.715720 6.456720 -0.000001 -0.000000 -10.482300 2.125290 0.176609 12.994200 -0.242716 4.980390 -93.980600 9.708920 -67.578000 5.348090 -0.000007 -0.000001 -44.142300 -16.027400 17.170300 24.328600 0.000019 0.000005 1.126340 18.474500 -3.550280 22.291600 -0.000001 0.000005 20.414200 4.427160 17.768300 12.994500 -0.242716 -4.980390 88.300500 4.963100 -71.070900 -5.348130 -0.000001 -0.000004 -67.705600 24.863800 -14.133400 -24.328900 0.000322 -0.000009 -4.489880 -6.559030 -34.463900 -22.291500 -0.000108 -0.000004 1.899170 5.503260 -6.606550 -2.192480 -6.469440 -0.000000 175.927000 -8.882580 -34.247000 39.081100 -0.000007 -0.000012 0.106340 -0.200168 27.979500 40.985400 -0.000006 -0.000013 2.496150 14.387900 -55.576300 11.754300 -0.000000 0.000003 0.002207 0.111975 -12.036000 -2.192510 6.469440 -0.000001 171.980000 8.018170 -171.803000 -39.081100 -0.002282 -0.040193 0.016664 -0.029201 24.570000 -40.985400 0.000008 0.000006 -10.342900 13.575600 -51.763900 -11.754300 -0.000006 -0.000006 -0.167982 -0.589066 -41.605400
0.000000 0.000000 0.000000 0.000000 0.000000 -0.000000 0.905981 89.140800 442.808000 -92.519800 5.785060 174.973000 15.735700 0.000005 -0.000001 130.009000 87.605500 -130.785000 8.984550 -0.406207 -0.000000 -4.079130 3.157000 -1.441710 16.377300 -0.000001 -0.000001 1.143330 3.494280 -0.990800 6.456720 -0.000001 -0.000000 -10.589100 2.014920 0.734881 12.994200 -0.242716 4.980390 -94.533000 10.805800 -67.078200 5.348090 -0.000007 -0.000001 -48.243400 -14.665100 13.216300 24.328600 0.000019 0.000005 1.088630 19.663700 -3.231890 22.291600 -0.000001 0.000005 11.497200 4.472590 17.047600 12.994500 -0.242716 -4.980390 87.680200 6.595540 -70.573500 -5.348130 -0.000001 -0.000004 -66.481000 24.126000 -8.341730 -24.328900 0.000322 -0.000009 -0.202956 -0.423831 -23.747800 -22.291500 -0.000108 -0.000004 -2.646130 5.430970 -3.926380 -2.192480 -6.469440 -0.000000 175.947000 -3.299300 -32.772200 39.081100 -0.000007 -0.000012 0.263572 -0.376857 34.969000 40.985400 -0.000006 -0.000013 3.082690 8.733520 -61.731500 11.754300 -0.000000 0.000003 -0.001176 0.185510 -9.051400 -2.192510 6.469440 -0.000001 171.111000 4.482800 -172.277000 -39.081100 -0.002282 -0.040193 0.071200 -0.116929 30.143000 -40.985400 0.000008 0.000006 -9.288320 9.577420 -43.701100 -11.754300 -0.000006 -0.000006 -0.238643 -0.705740 -47.137800
0.000000 0.000000 0.000000 0.000000 0.000000 -0.000000 0.382505 88.903900 437.079000 -92.980000 4.945420 177.859000 15.735700 0.000005 -0.000001 112.424000 87.241100 -113.248000 8.984550 -0.406207 -0.000000 -2.650160 2.178950 -1.598160 16.377300 -0.000001 -0.000001 1.212530 3.295000 -0.870566 6.456720 -0.000001 -0.000000 -10.687900 2.035730 1.272340 12.994200 -0.242716 4.980390 -94.879600 11.611300 -67.015300 5.348090 -0.000007 -0.000001 -53.552800 -10.511700 7.225310 24.328600 0.000019 0.000005 1.881510 25.993800 -4.278050 22.291600 -0.000001 0.000005 -3.745460 4.659990 13.587000 12.994500 -0.242716 -4.980390 87.529100 6.871980 -70.168400 -5.348130 -0.000001 -0.000004 -66.155200 18.887900 -3.294530 -24.328900 0.000322 -0.000009 2.469860 11.173200 -12.651600 -22.291500 -0.000108 -0.000004 -4.477660 5.326040 -0.672768 -2.192480 -6.469440 -0.000000 175.349000 -1.221600 -27.738000 39.081100 -0.000007 -0.000012 0.418305 -0.517220 38.965100 40.985400 -0.000006 -0.000013 4.084680 7.378540 -67.584300 11.754300 -0.000000 0.000003 -0.002208 0.198920 -8.506160 -2.192510 6.469440 -0.000001 171.572000 1.493970 -173.718000 -39.081100 -0.002282 -0.040193 0.125179 -0.150972 38.918100 -40.985400 0.000008 0.000006 -7.577170 5.322060 -32.130300 -11.754300 -0.000006 -0.000006 -0.111590 -0.472444 -36.351700
